<svg xmlns="http://www.w3.org/2000/svg" width="1200" height="1600" viewBox="0 0 1200 1600">
  <defs>
    <linearGradient id="bg" x1="0" y1="0" x2="0" y2="1">
      <stop offset="0" stop-color="#06281a"/>
      <stop offset="1" stop-color="#0c4429"/>
    </linearGradient>
  </defs>
  <rect width="1200" height="1600" fill="url(#bg)"/>
  <ellipse cx="600" cy="1420" rx="540" ry="80" fill="#3a2a16"/>
  <ellipse cx="600" cy="1410" rx="540" ry="64" fill="#4a3620"/>
  
  <path d="M600 1410 L600 688" stroke="#2fae5e" stroke-width="22" stroke-linecap="round"/>
  <ellipse cx="540" cy="1306.8280871670702" rx="121" ry="42" fill="#2aa257" transform="rotate(-28 540 1306.8280871670702)"/><ellipse cx="660" cy="1306.8280871670702" rx="121" ry="42" fill="#34b765" transform="rotate(28 660 1306.8280871670702)"/><ellipse cx="540" cy="1203.6561743341404" rx="112" ry="39" fill="#2aa257" transform="rotate(-28 540 1203.6561743341404)"/><ellipse cx="660" cy="1203.6561743341404" rx="112" ry="39" fill="#34b765" transform="rotate(28 660 1203.6561743341404)"/><ellipse cx="540" cy="1100.4842615012108" rx="102" ry="35" fill="#2aa257" transform="rotate(-28 540 1100.4842615012108)"/><ellipse cx="660" cy="1100.4842615012108" rx="102" ry="35" fill="#34b765" transform="rotate(28 660 1100.4842615012108)"/><ellipse cx="540" cy="997.3123486682808" rx="93" ry="32" fill="#2aa257" transform="rotate(-28 540 997.3123486682808)"/><ellipse cx="660" cy="997.3123486682808" rx="93" ry="32" fill="#34b765" transform="rotate(28 660 997.3123486682808)"/><ellipse cx="540" cy="894.140435835351" rx="83" ry="29" fill="#2aa257" transform="rotate(-28 540 894.140435835351)"/><ellipse cx="660" cy="894.140435835351" rx="83" ry="29" fill="#34b765" transform="rotate(28 660 894.140435835351)"/><ellipse cx="540" cy="790.9685230024213" rx="74" ry="26" fill="#2aa257" transform="rotate(-28 540 790.9685230024213)"/><ellipse cx="660" cy="790.9685230024213" rx="74" ry="26" fill="#34b765" transform="rotate(28 660 790.9685230024213)"/>
  <circle cx="625" cy="688" r="17" fill="#94a3b8" opacity="0.9"/><circle cx="617" cy="705" r="17" fill="#94a3b8" opacity="0.9"/><circle cx="600" cy="712" r="17" fill="#94a3b8" opacity="0.9"/><circle cx="583" cy="705" r="17" fill="#94a3b8" opacity="0.9"/><circle cx="575" cy="688" r="17" fill="#94a3b8" opacity="0.9"/><circle cx="583" cy="670" r="17" fill="#94a3b8" opacity="0.9"/><circle cx="600" cy="663" r="17" fill="#94a3b8" opacity="0.9"/><circle cx="617" cy="670" r="17" fill="#94a3b8" opacity="0.9"/><circle cx="600" cy="687.7966101694915" r="15" fill="#fde68a"/>
  <text x="60" y="100" font-family="system-ui, sans-serif" font-size="46" font-weight="800" fill="#ffffff" opacity="0.92">FRAME 38 / 60</text>
  <text x="60" y="158" font-family="system-ui, sans-serif" font-size="34" font-weight="700" fill="#94a3b8">FASE 04 · Agramiza / Hurd</text>
  <text x="60" y="1540" font-family="system-ui, sans-serif" font-size="28" font-weight="600" fill="#ffffff" opacity="0.4">PLACEHOLDER — reemplazar por frames reales</text>
</svg>