<svg xmlns="http://www.w3.org/2000/svg" width="1200" height="1600" viewBox="0 0 1200 1600">
  <defs>
    <linearGradient id="bg" x1="0" y1="0" x2="0" y2="1">
      <stop offset="0" stop-color="#06281a"/>
      <stop offset="1" stop-color="#0c4429"/>
    </linearGradient>
  </defs>
  <rect width="1200" height="1600" fill="url(#bg)"/>
  <ellipse cx="600" cy="1420" rx="540" ry="80" fill="#3a2a16"/>
  <ellipse cx="600" cy="1410" rx="540" ry="64" fill="#4a3620"/>
  
  <path d="M600 1410 L600 388" stroke="#2fae5e" stroke-width="25" stroke-linecap="round"/>
  <ellipse cx="540" cy="1296.4595103578154" rx="121" ry="42" fill="#2aa257" transform="rotate(-28 540 1296.4595103578154)"/><ellipse cx="660" cy="1296.4595103578154" rx="121" ry="42" fill="#34b765" transform="rotate(28 660 1296.4595103578154)"/><ellipse cx="540" cy="1182.919020715631" rx="114" ry="39" fill="#2aa257" transform="rotate(-28 540 1182.919020715631)"/><ellipse cx="660" cy="1182.919020715631" rx="114" ry="39" fill="#34b765" transform="rotate(28 660 1182.919020715631)"/><ellipse cx="540" cy="1069.3785310734463" rx="106" ry="37" fill="#2aa257" transform="rotate(-28 540 1069.3785310734463)"/><ellipse cx="660" cy="1069.3785310734463" rx="106" ry="37" fill="#34b765" transform="rotate(28 660 1069.3785310734463)"/><ellipse cx="540" cy="955.8380414312617" rx="99" ry="34" fill="#2aa257" transform="rotate(-28 540 955.8380414312617)"/><ellipse cx="660" cy="955.8380414312617" rx="99" ry="34" fill="#34b765" transform="rotate(28 660 955.8380414312617)"/><ellipse cx="540" cy="842.2975517890771" rx="92" ry="32" fill="#2aa257" transform="rotate(-28 540 842.2975517890771)"/><ellipse cx="660" cy="842.2975517890771" rx="92" ry="32" fill="#34b765" transform="rotate(28 660 842.2975517890771)"/><ellipse cx="540" cy="728.7570621468926" rx="84" ry="29" fill="#2aa257" transform="rotate(-28 540 728.7570621468926)"/><ellipse cx="660" cy="728.7570621468926" rx="84" ry="29" fill="#34b765" transform="rotate(28 660 728.7570621468926)"/><ellipse cx="540" cy="615.2165725047081" rx="77" ry="27" fill="#2aa257" transform="rotate(-28 540 615.2165725047081)"/><ellipse cx="660" cy="615.2165725047081" rx="77" ry="27" fill="#34b765" transform="rotate(28 660 615.2165725047081)"/><ellipse cx="540" cy="501.67608286252346" rx="70" ry="24" fill="#2aa257" transform="rotate(-28 540 501.67608286252346)"/><ellipse cx="660" cy="501.67608286252346" rx="70" ry="24" fill="#34b765" transform="rotate(28 660 501.67608286252346)"/>
  <circle cx="665" cy="388" r="45" fill="#14b8a6" opacity="0.9"/><circle cx="646" cy="434" r="45" fill="#14b8a6" opacity="0.9"/><circle cx="600" cy="453" r="45" fill="#14b8a6" opacity="0.9"/><circle cx="554" cy="434" r="45" fill="#14b8a6" opacity="0.9"/><circle cx="535" cy="388" r="45" fill="#14b8a6" opacity="0.9"/><circle cx="554" cy="342" r="45" fill="#14b8a6" opacity="0.9"/><circle cx="600" cy="323" r="45" fill="#14b8a6" opacity="0.9"/><circle cx="646" cy="342" r="45" fill="#14b8a6" opacity="0.9"/><circle cx="600" cy="388.13559322033893" r="41" fill="#fde68a"/>
  <text x="60" y="100" font-family="system-ui, sans-serif" font-size="46" font-weight="800" fill="#ffffff" opacity="0.92">FRAME 55 / 60</text>
  <text x="60" y="158" font-family="system-ui, sans-serif" font-size="34" font-weight="700" fill="#14b8a6">FASE 06 · Extracción</text>
  <text x="60" y="1540" font-family="system-ui, sans-serif" font-size="28" font-weight="600" fill="#ffffff" opacity="0.4">PLACEHOLDER — reemplazar por frames reales</text>
</svg>