<svg xmlns="http://www.w3.org/2000/svg" width="1200" height="1600" viewBox="0 0 1200 1600">
  <defs>
    <linearGradient id="bg" x1="0" y1="0" x2="0" y2="1">
      <stop offset="0" stop-color="#06281a"/>
      <stop offset="1" stop-color="#0c4429"/>
    </linearGradient>
  </defs>
  <rect width="1200" height="1600" fill="url(#bg)"/>
  <ellipse cx="600" cy="1420" rx="540" ry="80" fill="#3a2a16"/>
  <ellipse cx="600" cy="1410" rx="540" ry="64" fill="#4a3620"/>
  
  <path d="M600 1410 L600 371" stroke="#2fae5e" stroke-width="25" stroke-linecap="round"/>
  <ellipse cx="540" cy="1294.5009416195858" rx="121" ry="42" fill="#2aa257" transform="rotate(-28 540 1294.5009416195858)"/><ellipse cx="660" cy="1294.5009416195858" rx="121" ry="42" fill="#34b765" transform="rotate(28 660 1294.5009416195858)"/><ellipse cx="540" cy="1179.0018832391713" rx="114" ry="39" fill="#2aa257" transform="rotate(-28 540 1179.0018832391713)"/><ellipse cx="660" cy="1179.0018832391713" rx="114" ry="39" fill="#34b765" transform="rotate(28 660 1179.0018832391713)"/><ellipse cx="540" cy="1063.502824858757" rx="106" ry="37" fill="#2aa257" transform="rotate(-28 540 1063.502824858757)"/><ellipse cx="660" cy="1063.502824858757" rx="106" ry="37" fill="#34b765" transform="rotate(28 660 1063.502824858757)"/><ellipse cx="540" cy="948.0037664783429" rx="99" ry="34" fill="#2aa257" transform="rotate(-28 540 948.0037664783429)"/><ellipse cx="660" cy="948.0037664783429" rx="99" ry="34" fill="#34b765" transform="rotate(28 660 948.0037664783429)"/><ellipse cx="540" cy="832.5047080979285" rx="92" ry="32" fill="#2aa257" transform="rotate(-28 540 832.5047080979285)"/><ellipse cx="660" cy="832.5047080979285" rx="92" ry="32" fill="#34b765" transform="rotate(28 660 832.5047080979285)"/><ellipse cx="540" cy="717.0056497175142" rx="84" ry="29" fill="#2aa257" transform="rotate(-28 540 717.0056497175142)"/><ellipse cx="660" cy="717.0056497175142" rx="84" ry="29" fill="#34b765" transform="rotate(28 660 717.0056497175142)"/><ellipse cx="540" cy="601.5065913370998" rx="77" ry="27" fill="#2aa257" transform="rotate(-28 540 601.5065913370998)"/><ellipse cx="660" cy="601.5065913370998" rx="77" ry="27" fill="#34b765" transform="rotate(28 660 601.5065913370998)"/><ellipse cx="540" cy="486.0075329566856" rx="70" ry="24" fill="#2aa257" transform="rotate(-28 540 486.0075329566856)"/><ellipse cx="660" cy="486.0075329566856" rx="70" ry="24" fill="#34b765" transform="rotate(28 660 486.0075329566856)"/>
  <circle cx="667" cy="371" r="46" fill="#14b8a6" opacity="0.9"/><circle cx="648" cy="418" r="46" fill="#14b8a6" opacity="0.9"/><circle cx="600" cy="438" r="46" fill="#14b8a6" opacity="0.9"/><circle cx="552" cy="418" r="46" fill="#14b8a6" opacity="0.9"/><circle cx="533" cy="371" r="46" fill="#14b8a6" opacity="0.9"/><circle cx="552" cy="323" r="46" fill="#14b8a6" opacity="0.9"/><circle cx="600" cy="303" r="46" fill="#14b8a6" opacity="0.9"/><circle cx="648" cy="323" r="46" fill="#14b8a6" opacity="0.9"/><circle cx="600" cy="370.5084745762713" r="42" fill="#fde68a"/>
  <text x="60" y="100" font-family="system-ui, sans-serif" font-size="46" font-weight="800" fill="#ffffff" opacity="0.92">FRAME 56 / 60</text>
  <text x="60" y="158" font-family="system-ui, sans-serif" font-size="34" font-weight="700" fill="#14b8a6">FASE 06 · Extracción</text>
  <text x="60" y="1540" font-family="system-ui, sans-serif" font-size="28" font-weight="600" fill="#ffffff" opacity="0.4">PLACEHOLDER — reemplazar por frames reales</text>
</svg>